<?xml version="1.0" encoding="UTF-8"?>
<svg xmlns="http://www.w3.org/2000/svg" xmlns:xlink="http://www.w3.org/1999/xlink" width="100px" height="100px" viewBox="0 0 100 100" version="1.1">
<g id="surface1">
<path style=" stroke:none;fill-rule:nonzero;fill:rgb(97.647059%,92.156863%,69.803922%);fill-opacity:1;" d="M 64.296875 68.75 L 56.25 68.75 L 56.25 39.0625 C 56.25 37.335938 57.648438 35.9375 59.375 35.9375 C 61.101562 35.9375 62.5 37.335938 62.5 39.0625 C 62.5 39.929688 63.195312 40.625 64.0625 40.625 C 64.929688 40.625 65.625 39.929688 65.625 39.0625 C 65.625 35.609375 62.828125 32.8125 59.375 32.8125 C 57.5 32.8125 55.832031 33.65625 54.6875 34.972656 C 53.542969 33.65625 51.875 32.8125 50 32.8125 C 48.125 32.8125 46.457031 33.65625 45.3125 34.972656 C 44.167969 33.65625 42.5 32.8125 40.625 32.8125 C 37.171875 32.8125 34.375 35.609375 34.375 39.0625 C 34.375 39.929688 35.070312 40.625 35.9375 40.625 C 36.804688 40.625 37.5 39.929688 37.5 39.0625 C 37.5 37.335938 38.898438 35.9375 40.625 35.9375 C 42.351562 35.9375 43.75 37.335938 43.75 39.0625 L 43.75 68.75 L 35.703125 68.75 C 23.863281 63.324219 15.625 51.378906 15.625 37.5 C 15.625 18.515625 31.015625 3.125 50 3.125 C 68.984375 3.125 84.375 18.515625 84.375 37.5 C 84.375 51.378906 76.136719 63.324219 64.296875 68.75 Z M 64.296875 68.75 "/>
<path style=" stroke:none;fill-rule:nonzero;fill:rgb(22.352941%,25.882353%,25.098039%);fill-opacity:1;" d="M 50 0 C 29.289062 0 12.5 16.789062 12.5 37.5 C 12.5 52.628906 21.476562 65.632812 34.375 71.5625 L 34.375 93.75 C 34.375 97.203125 37.171875 100 40.625 100 L 59.375 100 C 62.828125 100 65.625 97.203125 65.625 93.75 L 65.625 71.5625 C 78.523438 65.632812 87.5 52.628906 87.5 37.5 C 87.5 16.789062 70.710938 0 50 0 Z M 62.5 93.75 C 62.5 95.476562 61.101562 96.875 59.375 96.875 L 40.625 96.875 C 38.898438 96.875 37.5 95.476562 37.5 93.75 L 37.5 90.625 L 62.5 90.625 Z M 62.5 87.5 L 37.5 87.5 L 37.5 81.25 L 62.5 81.25 Z M 62.5 78.125 L 37.5 78.125 L 37.5 71.875 L 62.5 71.875 Z M 46.875 68.75 L 46.875 39.0625 C 46.875 37.335938 48.273438 35.9375 50 35.9375 C 51.726562 35.9375 53.125 37.335938 53.125 39.0625 L 53.125 68.75 Z M 64.296875 68.75 L 56.25 68.75 L 56.25 39.0625 C 56.25 37.335938 57.648438 35.9375 59.375 35.9375 C 61.101562 35.9375 62.5 37.335938 62.5 39.0625 C 62.5 39.929688 63.195312 40.625 64.0625 40.625 C 64.929688 40.625 65.625 39.929688 65.625 39.0625 C 65.625 35.609375 62.828125 32.8125 59.375 32.8125 C 57.5 32.8125 55.832031 33.65625 54.6875 34.972656 C 53.542969 33.65625 51.875 32.8125 50 32.8125 C 48.125 32.8125 46.457031 33.65625 45.3125 34.972656 C 44.167969 33.65625 42.5 32.8125 40.625 32.8125 C 37.171875 32.8125 34.375 35.609375 34.375 39.0625 C 34.375 39.929688 35.070312 40.625 35.9375 40.625 C 36.804688 40.625 37.5 39.929688 37.5 39.0625 C 37.5 37.335938 38.898438 35.9375 40.625 35.9375 C 42.351562 35.9375 43.75 37.335938 43.75 39.0625 L 43.75 68.75 L 35.703125 68.75 C 23.863281 63.324219 15.625 51.378906 15.625 37.5 C 15.625 18.515625 31.015625 3.125 50 3.125 C 68.984375 3.125 84.375 18.515625 84.375 37.5 C 84.375 51.378906 76.136719 63.324219 64.296875 68.75 Z M 64.296875 68.75 "/>
<path style=" stroke:none;fill-rule:nonzero;fill:rgb(22.352941%,25.882353%,25.098039%);fill-opacity:1;" d="M 50 9.375 C 49.132812 9.375 48.4375 10.070312 48.4375 10.9375 C 48.4375 11.804688 49.132812 12.5 50 12.5 C 56.902344 12.5 63.152344 15.296875 67.671875 19.828125 C 67.671875 19.828125 69.148438 21.476562 70.3125 20.3125 C 71.476562 19.148438 69.886719 17.613281 69.886719 17.613281 C 64.800781 12.527344 57.769531 9.375 50 9.375 Z M 50 9.375 "/>
<path style=" stroke:none;fill-rule:nonzero;fill:rgb(70.588235%,80%,72.54902%);fill-opacity:1;" d="M 37.5 93.75 C 37.5 95.476562 38.898438 96.875 40.625 96.875 L 59.375 96.875 C 61.101562 96.875 62.5 95.476562 62.5 93.75 L 62.5 90.625 L 37.5 90.625 Z M 37.5 93.75 "/>
<path style=" stroke:none;fill-rule:nonzero;fill:rgb(70.588235%,80%,72.54902%);fill-opacity:1;" d="M 37.5 71.875 L 62.5 71.875 L 62.5 78.125 L 37.5 78.125 Z M 37.5 71.875 "/>
<path style=" stroke:none;fill-rule:nonzero;fill:rgb(97.647059%,92.156863%,69.803922%);fill-opacity:1;" d="M 53.125 68.75 L 46.875 68.75 L 46.875 39.0625 C 46.875 37.335938 48.273438 35.9375 50 35.9375 C 51.726562 35.9375 53.125 37.335938 53.125 39.0625 Z M 53.125 68.75 "/>
</g>
</svg>
