<?xml version="1.0" encoding="UTF-8"?>
<svg xmlns="http://www.w3.org/2000/svg" xmlns:xlink="http://www.w3.org/1999/xlink" width="100px" height="100px" viewBox="0 0 100 100" version="1.1">
<g id="surface1">
<path style=" stroke:none;fill-rule:nonzero;fill:rgb(22.352941%,25.882353%,25.098039%);fill-opacity:1;" d="M 100 31.25 C 100 13.988281 86.011719 0 68.75 0 C 60.234375 0 52.539062 3.421875 46.90625 8.941406 L 46.875 8.910156 L 9.1875 46.625 C 3.515625 52.28125 0 60.101562 0 68.75 C 0 86.011719 13.988281 100 31.25 100 C 39.898438 100 47.71875 96.484375 53.375 90.8125 L 91.089844 53.125 L 91.058594 53.09375 C 96.578125 47.460938 100 39.757812 100 31.25 Z M 44.523438 81.984375 C 40.980469 85.539062 36.261719 87.5 31.25 87.5 C 20.910156 87.5 12.5 79.089844 12.5 68.75 C 12.5 63.738281 14.460938 59.019531 18.03125 55.46875 L 32.324219 41.164062 L 58.835938 67.675781 Z M 82.128906 44.347656 C 81.914062 44.570312 81.707031 44.789062 81.515625 45.019531 L 67.679688 58.851562 L 41.15625 32.320312 L 54.980469 18.492188 C 55.207031 18.292969 55.433594 18.085938 55.652344 17.871094 C 59.191406 14.40625 63.84375 12.5 68.75 12.5 C 79.089844 12.5 87.5 20.910156 87.5 31.25 C 87.5 36.15625 85.589844 40.808594 82.128906 44.347656 Z M 82.128906 44.347656 "/>
<path style=" stroke:none;fill-rule:nonzero;fill:rgb(96.862745%,42.745098%,34.117647%);fill-opacity:1;" d="M 44.523438 81.984375 C 40.980469 85.539062 36.261719 87.5 31.25 87.5 C 20.910156 87.5 12.5 79.089844 12.5 68.75 C 12.5 63.738281 14.460938 59.019531 18.03125 55.46875 L 32.324219 41.164062 L 58.835938 67.675781 Z M 44.523438 81.984375 "/>
<path style=" stroke:none;fill-rule:nonzero;fill:rgb(97.647059%,92.156863%,69.803922%);fill-opacity:1;" d="M 82.128906 44.347656 C 81.914062 44.570312 81.707031 44.789062 81.515625 45.019531 L 67.679688 58.851562 L 41.15625 32.320312 L 54.980469 18.492188 C 55.207031 18.292969 55.433594 18.085938 55.652344 17.871094 C 59.191406 14.40625 63.84375 12.5 68.75 12.5 C 79.089844 12.5 87.5 20.910156 87.5 31.25 C 87.5 36.15625 85.589844 40.808594 82.128906 44.347656 Z M 82.128906 44.347656 "/>
</g>
</svg>
