<?xml version="1.0" encoding="UTF-8"?>
<svg xmlns="http://www.w3.org/2000/svg" xmlns:xlink="http://www.w3.org/1999/xlink" width="100px" height="100px" viewBox="0 0 100 100" version="1.1">
<defs>
<filter id="alpha" filterUnits="objectBoundingBox" x="0%" y="0%" width="100%" height="100%">
  <feColorMatrix type="matrix" in="SourceGraphic" values="0 0 0 0 1 0 0 0 0 1 0 0 0 0 1 0 0 0 1 0"/>
</filter>
<mask id="mask0">
  <g filter="url(#alpha)">
<rect x="0" y="0" width="100" height="100" style="fill:rgb(0%,0%,0%);fill-opacity:0.14902;stroke:none;"/>
  </g>
</mask>
<clipPath id="clip1">
  <rect x="0" y="0" width="100" height="100"/>
</clipPath>
<g id="surface5" clip-path="url(#clip1)">
<path style=" stroke:none;fill-rule:nonzero;fill:rgb(13.72549%,12.156863%,12.54902%);fill-opacity:1;" d="M 3.125 68.75 L 3.125 71.875 L 27.484375 71.875 C 26.457031 67.210938 25.550781 61.609375 25.183594 55.515625 Z M 3.125 68.75 "/>
<path style=" stroke:none;fill-rule:nonzero;fill:rgb(13.72549%,12.156863%,12.54902%);fill-opacity:1;" d="M 74.816406 55.515625 C 74.453125 61.609375 73.546875 67.207031 72.515625 71.875 L 96.875 71.875 L 96.875 68.75 Z M 74.816406 55.515625 "/>
</g>
<mask id="mask1">
  <g filter="url(#alpha)">
<rect x="0" y="0" width="100" height="100" style="fill:rgb(0%,0%,0%);fill-opacity:0.2;stroke:none;"/>
  </g>
</mask>
<clipPath id="clip2">
  <rect x="0" y="0" width="100" height="100"/>
</clipPath>
<g id="surface8" clip-path="url(#clip2)">
<path style=" stroke:none;fill-rule:nonzero;fill:rgb(13.72549%,12.156863%,12.54902%);fill-opacity:1;" d="M 3.125 75 L 3.125 78.125 L 29.050781 78.125 C 29.054688 78.136719 29.054688 78.148438 29.0625 78.160156 C 28.78125 77.179688 28.5 76.136719 28.21875 75 Z M 3.125 75 "/>
<path style=" stroke:none;fill-rule:nonzero;fill:rgb(13.72549%,12.156863%,12.54902%);fill-opacity:1;" d="M 71.78125 75 C 71.5 76.136719 71.21875 77.179688 70.9375 78.160156 C 70.945312 78.148438 70.945312 78.136719 70.949219 78.125 L 96.875 78.125 L 96.875 75 Z M 71.78125 75 "/>
</g>
</defs>
<g id="surface1">
<path style=" stroke:none;fill-rule:nonzero;fill:rgb(97.647059%,92.156863%,69.803922%);fill-opacity:1;" d="M 50 3.125 C 59.375 9.375 71.875 25 71.875 50 C 71.875 56.875 71.03125 63.328125 69.96875 68.75 L 30.03125 68.75 C 28.96875 63.328125 28.125 56.875 28.125 50 C 28.125 25 40.625 9.375 50 3.125 Z M 50 3.125 "/>
<path style=" stroke:none;fill-rule:nonzero;fill:rgb(97.647059%,92.156863%,69.803922%);fill-opacity:1;" d="M 3.125 68.75 L 25.183594 55.515625 C 25.546875 61.609375 26.453125 67.207031 27.484375 71.875 L 3.125 71.875 Z M 3.125 68.75 "/>
<path style=" stroke:none;fill-rule:nonzero;fill:rgb(27.058824%,66.666667%,72.156863%);fill-opacity:1;" d="M 3.125 78.125 L 3.125 75 L 28.21875 75 C 28.5 76.136719 28.78125 77.179688 29.0625 78.160156 C 29.054688 78.148438 29.054688 78.136719 29.050781 78.125 Z M 3.125 78.125 "/>
<path style=" stroke:none;fill-rule:nonzero;fill:rgb(96.862745%,42.745098%,34.117647%);fill-opacity:1;" d="M 50 96.875 C 48.4375 96.875 45.3125 93.75 45.3125 87.5 L 54.6875 87.5 C 54.6875 93.75 51.5625 96.875 50 96.875 Z M 50 96.875 "/>
<path style=" stroke:none;fill-rule:nonzero;fill:rgb(27.058824%,66.666667%,72.156863%);fill-opacity:1;" d="M 65.625 84.375 L 34.375 84.375 C 34.375 84.375 32.414062 79.476562 30.691406 71.875 L 69.308594 71.875 C 67.585938 79.476562 65.625 84.375 65.625 84.375 Z M 65.625 84.375 "/>
<path style=" stroke:none;fill-rule:nonzero;fill:rgb(27.058824%,66.666667%,72.156863%);fill-opacity:1;" d="M 96.875 78.125 L 70.949219 78.125 C 70.945312 78.136719 70.945312 78.148438 70.9375 78.160156 C 71.21875 77.179688 71.5 76.136719 71.78125 75 L 96.875 75 Z M 96.875 78.125 "/>
<path style=" stroke:none;fill-rule:nonzero;fill:rgb(97.647059%,92.156863%,69.803922%);fill-opacity:1;" d="M 96.875 71.875 L 72.515625 71.875 C 73.542969 67.210938 74.449219 61.609375 74.816406 55.515625 L 96.875 68.75 Z M 96.875 71.875 "/>
<path style=" stroke:none;fill-rule:nonzero;fill:rgb(22.352941%,25.882353%,25.098039%);fill-opacity:1;" d="M 98.484375 66.070312 L 74.960938 51.957031 C 74.960938 51.964844 74.960938 51.972656 74.960938 51.976562 C 74.976562 51.320312 75 50.667969 75 50 C 75 24.960938 62.980469 8.023438 51.734375 0.523438 C 51.207031 0.175781 50.605469 0 50 0 C 49.394531 0 48.792969 0.175781 48.265625 0.523438 C 37.019531 8.023438 25 24.960938 25 50 C 25 50.667969 25.023438 51.320312 25.039062 51.976562 C 25.039062 51.972656 25.039062 51.964844 25.039062 51.957031 L 1.515625 66.070312 C 0.574219 66.632812 0 67.652344 0 68.75 L 0 78.125 C 0 79.851562 1.398438 81.25 3.125 81.25 L 29.980469 81.25 C 30.789062 83.792969 31.394531 85.339844 31.472656 85.535156 C 31.949219 86.722656 33.097656 87.5 34.375 87.5 L 42.1875 87.5 C 42.1875 94.976562 46.226562 100 50 100 C 53.742188 100 57.75 95.054688 57.8125 87.671875 C 57.816406 87.613281 57.816406 87.558594 57.816406 87.5 L 65.625 87.5 C 66.902344 87.5 68.050781 86.722656 68.527344 85.535156 C 68.605469 85.339844 69.210938 83.792969 70.015625 81.25 L 96.875 81.25 C 98.601562 81.25 100 79.851562 100 78.125 L 100 68.75 C 100 67.652344 99.425781 66.632812 98.484375 66.070312 Z M 3.125 68.75 L 25.183594 55.515625 C 25.546875 61.609375 26.453125 67.207031 27.484375 71.875 L 3.125 71.875 Z M 29.050781 78.125 L 3.125 78.125 L 3.125 75 L 28.21875 75 C 28.5 76.136719 28.78125 77.179688 29.0625 78.160156 C 29.054688 78.148438 29.054688 78.136719 29.050781 78.125 Z M 50 96.875 C 48.4375 96.875 45.3125 93.75 45.3125 87.5 L 54.6875 87.5 C 54.6875 93.75 51.5625 96.875 50 96.875 Z M 65.625 84.375 L 34.375 84.375 C 34.375 84.375 32.414062 79.476562 30.691406 71.875 L 69.308594 71.875 C 67.585938 79.476562 65.625 84.375 65.625 84.375 Z M 69.96875 68.75 L 30.03125 68.75 C 28.96875 63.328125 28.125 56.875 28.125 50 C 28.125 25 40.625 9.375 50 3.125 C 59.375 9.375 71.875 25 71.875 50 C 71.875 56.875 71.03125 63.328125 69.96875 68.75 Z M 96.875 78.125 L 70.949219 78.125 C 70.945312 78.136719 70.945312 78.148438 70.9375 78.160156 C 71.21875 77.179688 71.5 76.136719 71.78125 75 L 96.875 75 Z M 96.875 71.875 L 72.515625 71.875 C 73.542969 67.210938 74.449219 61.609375 74.816406 55.515625 L 96.875 68.75 Z M 96.875 71.875 "/>
<path style=" stroke:none;fill-rule:nonzero;fill:rgb(22.352941%,25.882353%,25.098039%);fill-opacity:1;" d="M 50 28.125 C 44.824219 28.125 40.625 32.324219 40.625 37.5 C 40.625 42.675781 44.824219 46.875 50 46.875 C 55.175781 46.875 59.375 42.675781 59.375 37.5 C 59.375 32.324219 55.175781 28.125 50 28.125 Z M 50 43.75 C 46.546875 43.75 43.75 40.953125 43.75 37.5 C 43.75 34.046875 46.546875 31.25 50 31.25 C 53.453125 31.25 56.25 34.046875 56.25 37.5 C 56.25 40.953125 53.453125 43.75 50 43.75 Z M 50 43.75 "/>
<path style=" stroke:none;fill-rule:nonzero;fill:rgb(70.588235%,80%,72.54902%);fill-opacity:1;" d="M 56.25 37.5 C 56.25 40.953125 53.453125 43.75 50 43.75 C 46.546875 43.75 43.75 40.953125 43.75 37.5 C 43.75 34.046875 46.546875 31.25 50 31.25 C 53.453125 31.25 56.25 34.046875 56.25 37.5 Z M 56.25 37.5 "/>
<use xlink:href="#surface5" mask="url(#mask0)"/>
<use xlink:href="#surface8" mask="url(#mask1)"/>
</g>
</svg>
