<?xml version="1.0" encoding="UTF-8"?>
<svg xmlns="http://www.w3.org/2000/svg" xmlns:xlink="http://www.w3.org/1999/xlink" width="100px" height="100px" viewBox="0 0 100 100" version="1.1">
<g id="surface1">
<path style=" stroke:none;fill-rule:nonzero;fill:rgb(97.647059%,92.156863%,69.803922%);fill-opacity:1;" d="M 67.226562 3.316406 C 68.851562 2.726562 70.640625 3.5625 71.234375 5.183594 L 76.171875 18.75 L 66.644531 18.75 C 65.351562 15.109375 61.890625 12.5 57.8125 12.5 C 53.734375 12.5 50.273438 15.113281 48.984375 18.75 L 24.820312 18.75 Z M 67.226562 3.316406 "/>
<path style=" stroke:none;fill-rule:nonzero;fill:rgb(96.862745%,42.745098%,34.117647%);fill-opacity:1;" d="M 63.195312 18.75 L 52.429688 18.75 C 53.511719 16.890625 55.503906 15.625 57.8125 15.625 C 60.117188 15.625 62.113281 16.890625 63.195312 18.75 Z M 63.195312 18.75 "/>
<path style=" stroke:none;fill-rule:nonzero;fill:rgb(31.372549%,42.352941%,49.803922%);fill-opacity:1;" d="M 83.535156 9.992188 C 82.710938 9.253906 81.4375 9.367188 81.429688 9.367188 C 81.320312 9.375 79.398438 9.574219 76.273438 9.894531 L 79.5 18.75 L 84.375 18.75 L 84.375 12.5 C 84.375 11.332031 84.09375 10.488281 83.535156 9.992188 Z M 83.535156 9.992188 "/>
<path style=" stroke:none;fill-rule:nonzero;fill:rgb(31.372549%,42.352941%,49.803922%);fill-opacity:1;" d="M 4.152344 19.136719 C 4.8125 18.902344 5.511719 18.75 6.25 18.75 L 15.683594 18.75 L 25.609375 15.140625 C 17.238281 16.015625 10.148438 16.761719 6.421875 17.179688 C 5.363281 17.296875 4.644531 18.125 4.152344 19.136719 Z M 4.152344 19.136719 "/>
<path style=" stroke:none;fill-rule:nonzero;fill:rgb(27.058824%,66.666667%,72.156863%);fill-opacity:1;" d="M 90.625 93.75 C 90.625 95.476562 89.226562 96.875 87.5 96.875 L 6.25 96.875 C 4.523438 96.875 3.125 95.476562 3.125 93.75 L 3.125 25 C 3.125 23.273438 4.523438 21.875 6.25 21.875 L 87.5 21.875 C 89.226562 21.875 90.625 23.273438 90.625 25 L 90.625 50 L 65.625 50 C 63.898438 50 62.5 51.398438 62.5 53.125 L 62.5 65.625 C 62.5 67.351562 63.898438 68.75 65.625 68.75 L 90.625 68.75 Z M 90.625 93.75 "/>
<path style=" stroke:none;fill-rule:nonzero;fill:rgb(70.588235%,80%,72.54902%);fill-opacity:1;" d="M 96.875 64.0625 C 96.875 64.925781 96.175781 65.625 95.3125 65.625 L 67.1875 65.625 C 66.324219 65.625 65.625 64.925781 65.625 64.0625 L 65.625 54.6875 C 65.625 53.824219 66.324219 53.125 67.1875 53.125 L 95.3125 53.125 C 96.175781 53.125 96.875 53.824219 96.875 54.6875 Z M 96.875 64.0625 "/>
<path style=" stroke:none;fill-rule:nonzero;fill:rgb(22.352941%,25.882353%,25.098039%);fill-opacity:1;" d="M 96.875 50 L 93.75 50 L 93.75 25 C 93.75 21.546875 90.953125 18.75 87.5 18.75 L 87.5 12.5 C 87.5 10.402344 86.867188 8.773438 85.617188 7.660156 C 83.765625 6.003906 81.34375 6.238281 81.09375 6.257812 C 80.980469 6.269531 78.773438 6.496094 75.171875 6.867188 L 74.171875 4.117188 C 72.988281 0.871094 69.40625 -0.800781 66.160156 0.382812 L 37.703125 10.734375 C 24.273438 12.128906 11.558594 13.464844 6.078125 14.070312 C 1.484375 14.582031 0.0976562 20.167969 0 23.390625 C -0.00390625 23.597656 0 93.75 0 93.75 C 0 97.203125 2.796875 100 6.25 100 L 87.5 100 C 90.953125 100 93.75 97.203125 93.75 93.75 L 93.75 68.75 L 96.875 68.75 C 98.601562 68.75 100 67.351562 100 65.625 L 100 53.125 C 100 51.398438 98.601562 50 96.875 50 Z M 81.429688 9.367188 C 81.4375 9.367188 82.710938 9.257812 83.535156 9.992188 C 84.09375 10.488281 84.375 11.332031 84.375 12.5 L 84.375 18.75 L 79.5 18.75 L 76.273438 9.894531 C 79.398438 9.574219 81.320312 9.375 81.429688 9.367188 Z M 67.226562 3.316406 C 68.851562 2.726562 70.640625 3.5625 71.234375 5.183594 L 76.171875 18.75 L 66.644531 18.75 C 65.351562 15.109375 61.890625 12.5 57.8125 12.5 C 53.734375 12.5 50.273438 15.113281 48.984375 18.75 L 24.820312 18.75 Z M 63.195312 18.75 L 52.429688 18.75 C 53.511719 16.890625 55.503906 15.625 57.8125 15.625 C 60.117188 15.625 62.113281 16.890625 63.195312 18.75 Z M 6.421875 17.179688 C 10.148438 16.761719 17.238281 16.015625 25.609375 15.140625 L 15.6875 18.75 L 6.25 18.75 C 5.507812 18.75 4.808594 18.902344 4.152344 19.136719 C 4.644531 18.125 5.363281 17.296875 6.421875 17.179688 Z M 90.625 93.75 C 90.625 95.476562 89.226562 96.875 87.5 96.875 L 6.25 96.875 C 4.523438 96.875 3.125 95.476562 3.125 93.75 L 3.125 25 C 3.125 23.273438 4.523438 21.875 6.25 21.875 L 87.5 21.875 C 89.226562 21.875 90.625 23.273438 90.625 25 L 90.625 50 L 65.625 50 C 63.898438 50 62.5 51.398438 62.5 53.125 L 62.5 65.625 C 62.5 67.351562 63.898438 68.75 65.625 68.75 L 90.625 68.75 Z M 96.875 64.0625 C 96.875 64.925781 96.175781 65.625 95.3125 65.625 L 67.1875 65.625 C 66.324219 65.625 65.625 64.925781 65.625 64.0625 L 65.625 54.6875 C 65.625 53.824219 66.324219 53.125 67.1875 53.125 L 95.3125 53.125 C 96.175781 53.125 96.875 53.824219 96.875 54.6875 Z M 96.875 64.0625 "/>
<path style=" stroke:none;fill-rule:nonzero;fill:rgb(22.352941%,25.882353%,25.098039%);fill-opacity:1;" d="M 75 59.375 C 75 61.101562 73.601562 62.5 71.875 62.5 C 70.148438 62.5 68.75 61.101562 68.75 59.375 C 68.75 57.648438 70.148438 56.25 71.875 56.25 C 73.601562 56.25 75 57.648438 75 59.375 Z M 75 59.375 "/>
<path style=" stroke:none;fill-rule:nonzero;fill:rgb(22.352941%,25.882353%,25.098039%);fill-opacity:1;" d="M 82.8125 31.25 L 85.9375 31.25 C 86.800781 31.25 87.5 30.550781 87.5 29.6875 C 87.5 28.824219 86.800781 28.125 85.9375 28.125 L 82.8125 28.125 C 81.949219 28.125 81.25 28.824219 81.25 29.6875 C 81.25 30.550781 81.949219 31.25 82.8125 31.25 Z M 82.8125 31.25 "/>
<path style=" stroke:none;fill-rule:nonzero;fill:rgb(22.352941%,25.882353%,25.098039%);fill-opacity:1;" d="M 73.4375 31.25 L 76.5625 31.25 C 77.425781 31.25 78.125 30.550781 78.125 29.6875 C 78.125 28.824219 77.425781 28.125 76.5625 28.125 L 73.4375 28.125 C 72.574219 28.125 71.875 28.824219 71.875 29.6875 C 71.875 30.550781 72.574219 31.25 73.4375 31.25 Z M 73.4375 31.25 "/>
<path style=" stroke:none;fill-rule:nonzero;fill:rgb(22.352941%,25.882353%,25.098039%);fill-opacity:1;" d="M 64.0625 31.25 L 67.1875 31.25 C 68.050781 31.25 68.75 30.550781 68.75 29.6875 C 68.75 28.824219 68.050781 28.125 67.1875 28.125 L 64.0625 28.125 C 63.199219 28.125 62.5 28.824219 62.5 29.6875 C 62.5 30.550781 63.199219 31.25 64.0625 31.25 Z M 64.0625 31.25 "/>
<path style=" stroke:none;fill-rule:nonzero;fill:rgb(22.352941%,25.882353%,25.098039%);fill-opacity:1;" d="M 57.8125 28.125 L 54.6875 28.125 C 53.824219 28.125 53.125 28.824219 53.125 29.6875 C 53.125 30.550781 53.824219 31.25 54.6875 31.25 L 57.8125 31.25 C 58.675781 31.25 59.375 30.550781 59.375 29.6875 C 59.375 28.824219 58.675781 28.125 57.8125 28.125 Z M 57.8125 28.125 "/>
<path style=" stroke:none;fill-rule:nonzero;fill:rgb(22.352941%,25.882353%,25.098039%);fill-opacity:1;" d="M 48.4375 28.125 L 45.3125 28.125 C 44.449219 28.125 43.75 28.824219 43.75 29.6875 C 43.75 30.550781 44.449219 31.25 45.3125 31.25 L 48.4375 31.25 C 49.300781 31.25 50 30.550781 50 29.6875 C 50 28.824219 49.300781 28.125 48.4375 28.125 Z M 48.4375 28.125 "/>
<path style=" stroke:none;fill-rule:nonzero;fill:rgb(22.352941%,25.882353%,25.098039%);fill-opacity:1;" d="M 39.0625 28.125 L 35.9375 28.125 C 35.074219 28.125 34.375 28.824219 34.375 29.6875 C 34.375 30.550781 35.074219 31.25 35.9375 31.25 L 39.0625 31.25 C 39.925781 31.25 40.625 30.550781 40.625 29.6875 C 40.625 28.824219 39.925781 28.125 39.0625 28.125 Z M 39.0625 28.125 "/>
<path style=" stroke:none;fill-rule:nonzero;fill:rgb(22.352941%,25.882353%,25.098039%);fill-opacity:1;" d="M 29.6875 28.125 L 26.5625 28.125 C 25.699219 28.125 25 28.824219 25 29.6875 C 25 30.550781 25.699219 31.25 26.5625 31.25 L 29.6875 31.25 C 30.550781 31.25 31.25 30.550781 31.25 29.6875 C 31.25 28.824219 30.550781 28.125 29.6875 28.125 Z M 29.6875 28.125 "/>
<path style=" stroke:none;fill-rule:nonzero;fill:rgb(22.352941%,25.882353%,25.098039%);fill-opacity:1;" d="M 20.3125 28.125 L 17.1875 28.125 C 16.324219 28.125 15.625 28.824219 15.625 29.6875 C 15.625 30.550781 16.324219 31.25 17.1875 31.25 L 20.3125 31.25 C 21.175781 31.25 21.875 30.550781 21.875 29.6875 C 21.875 28.824219 21.175781 28.125 20.3125 28.125 Z M 20.3125 28.125 "/>
<path style=" stroke:none;fill-rule:nonzero;fill:rgb(22.352941%,25.882353%,25.098039%);fill-opacity:1;" d="M 10.9375 28.125 L 7.8125 28.125 C 6.949219 28.125 6.25 28.824219 6.25 29.6875 C 6.25 30.550781 6.949219 31.25 7.8125 31.25 L 10.9375 31.25 C 11.800781 31.25 12.5 30.550781 12.5 29.6875 C 12.5 28.824219 11.800781 28.125 10.9375 28.125 Z M 10.9375 28.125 "/>
<path style=" stroke:none;fill-rule:nonzero;fill:rgb(22.352941%,25.882353%,25.098039%);fill-opacity:1;" d="M 82.8125 90.625 L 85.9375 90.625 C 86.800781 90.625 87.5 89.925781 87.5 89.0625 C 87.5 88.199219 86.800781 87.5 85.9375 87.5 L 82.8125 87.5 C 81.949219 87.5 81.25 88.199219 81.25 89.0625 C 81.25 89.925781 81.949219 90.625 82.8125 90.625 Z M 82.8125 90.625 "/>
<path style=" stroke:none;fill-rule:nonzero;fill:rgb(22.352941%,25.882353%,25.098039%);fill-opacity:1;" d="M 73.4375 90.625 L 76.5625 90.625 C 77.425781 90.625 78.125 89.925781 78.125 89.0625 C 78.125 88.199219 77.425781 87.5 76.5625 87.5 L 73.4375 87.5 C 72.574219 87.5 71.875 88.199219 71.875 89.0625 C 71.875 89.925781 72.574219 90.625 73.4375 90.625 Z M 73.4375 90.625 "/>
<path style=" stroke:none;fill-rule:nonzero;fill:rgb(22.352941%,25.882353%,25.098039%);fill-opacity:1;" d="M 62.5 89.0625 C 62.5 89.925781 63.199219 90.625 64.0625 90.625 L 67.1875 90.625 C 68.050781 90.625 68.75 89.925781 68.75 89.0625 C 68.75 88.199219 68.050781 87.5 67.1875 87.5 L 64.0625 87.5 C 63.199219 87.5 62.5 88.199219 62.5 89.0625 Z M 62.5 89.0625 "/>
<path style=" stroke:none;fill-rule:nonzero;fill:rgb(22.352941%,25.882353%,25.098039%);fill-opacity:1;" d="M 57.8125 87.5 L 54.6875 87.5 C 53.824219 87.5 53.125 88.199219 53.125 89.0625 C 53.125 89.925781 53.824219 90.625 54.6875 90.625 L 57.8125 90.625 C 58.675781 90.625 59.375 89.925781 59.375 89.0625 C 59.375 88.199219 58.675781 87.5 57.8125 87.5 Z M 57.8125 87.5 "/>
<path style=" stroke:none;fill-rule:nonzero;fill:rgb(22.352941%,25.882353%,25.098039%);fill-opacity:1;" d="M 48.4375 87.5 L 45.3125 87.5 C 44.449219 87.5 43.75 88.199219 43.75 89.0625 C 43.75 89.925781 44.449219 90.625 45.3125 90.625 L 48.4375 90.625 C 49.300781 90.625 50 89.925781 50 89.0625 C 50 88.199219 49.300781 87.5 48.4375 87.5 Z M 48.4375 87.5 "/>
<path style=" stroke:none;fill-rule:nonzero;fill:rgb(22.352941%,25.882353%,25.098039%);fill-opacity:1;" d="M 39.0625 87.5 L 35.9375 87.5 C 35.074219 87.5 34.375 88.199219 34.375 89.0625 C 34.375 89.925781 35.074219 90.625 35.9375 90.625 L 39.0625 90.625 C 39.925781 90.625 40.625 89.925781 40.625 89.0625 C 40.625 88.199219 39.925781 87.5 39.0625 87.5 Z M 39.0625 87.5 "/>
<path style=" stroke:none;fill-rule:nonzero;fill:rgb(22.352941%,25.882353%,25.098039%);fill-opacity:1;" d="M 29.6875 87.5 L 26.5625 87.5 C 25.699219 87.5 25 88.199219 25 89.0625 C 25 89.925781 25.699219 90.625 26.5625 90.625 L 29.6875 90.625 C 30.550781 90.625 31.25 89.925781 31.25 89.0625 C 31.25 88.199219 30.550781 87.5 29.6875 87.5 Z M 29.6875 87.5 "/>
<path style=" stroke:none;fill-rule:nonzero;fill:rgb(22.352941%,25.882353%,25.098039%);fill-opacity:1;" d="M 20.3125 87.5 L 17.1875 87.5 C 16.324219 87.5 15.625 88.199219 15.625 89.0625 C 15.625 89.925781 16.324219 90.625 17.1875 90.625 L 20.3125 90.625 C 21.175781 90.625 21.875 89.925781 21.875 89.0625 C 21.875 88.199219 21.175781 87.5 20.3125 87.5 Z M 20.3125 87.5 "/>
<path style=" stroke:none;fill-rule:nonzero;fill:rgb(22.352941%,25.882353%,25.098039%);fill-opacity:1;" d="M 10.9375 87.5 L 7.8125 87.5 C 6.949219 87.5 6.25 88.199219 6.25 89.0625 C 6.25 89.925781 6.949219 90.625 7.8125 90.625 L 10.9375 90.625 C 11.800781 90.625 12.5 89.925781 12.5 89.0625 C 12.5 88.199219 11.800781 87.5 10.9375 87.5 Z M 10.9375 87.5 "/>
</g>
</svg>
